# xmcd
#
# Track frame offsets:
#	150
#	20890
#	39990
#	56890
#	74381
#	92068
#	111267
#
# Disc length: 1490 seconds
#
# Revision: 1
# Processed by: cddbd v1.5.2PL0 Copyright (c) Steve Scherf et al.
# Submitted via: audiograbber 1.83.01
#
DISCID=6105d007
DTITLE=Bayou Gumbo - Mind The Step
DYEAR=2004
DGENRE=Ethnic
TTITLE0=The Train that Never Came
TTITLE1=Pass me that Remote
TTITLE2=Petite Fleur
TTITLE3=Look Out Where you're Walking
TTITLE4=I Walk to Jo'burg
TTITLE5=El Rayo
TTITLE6=Exit
EXTD=
EXTT0=
EXTT1=
EXTT2=
EXTT3=
EXTT4=
EXTT5=
EXTT6=
PLAYORDER=
